inDegrees=no
num_controls=7
num_derivatives=13
num_iterations=91
num_multipliers=7
num_parameters=0
num_slacks=7
num_states=26
objective=0.430852
objective_accelerations=0.051637
objective_balance=0.006845
objective_effort=0.031654
objective_height=0.339573
objective_ligament=0.001143
solver_duration=1191.609616
status=Solve_Succeeded
success=true
DataType=double
version=3
OpenSimVersion=4.5
endheader
time	/jointset/ground_pelvis/pelvis_tilt/value	/jointset/ground_pelvis/pelvis_tx/value	/jointset/ground_pelvis/pelvis_ty/value	/jointset/hip_l/hip_flexion_l/value	/jointset/hip_l/hip_adduction_l/value	/jointset/hip_l/hip_rotation_l/value	/jointset/back/lumbar_extension/value	/jointset/patellofemoral_l/patellar_flexion_l/value	/jointset/knee_l/knee_flexion_l/value	/jointset/knee_l/knee_adduction_l/value	/jointset/knee_l/knee_rotation_l/value	/jointset/ankle_l/ankle_angle_l/value	/jointset/subtalar_l/subtalar_angle_l/value	/jointset/ground_pelvis/pelvis_tilt/speed	/jointset/ground_pelvis/pelvis_tx/speed	/jointset/ground_pelvis/pelvis_ty/speed	/jointset/hip_l/hip_flexion_l/speed	/jointset/hip_l/hip_adduction_l/speed	/jointset/hip_l/hip_rotation_l/speed	/jointset/back/lumbar_extension/speed	/jointset/patellofemoral_l/patellar_flexion_l/speed	/jointset/knee_l/knee_flexion_l/speed	/jointset/knee_l/knee_adduction_l/speed	/jointset/knee_l/knee_rotation_l/speed	/jointset/ankle_l/ankle_angle_l/speed	/jointset/subtalar_l/subtalar_angle_l/speed	/forceset/tau_hip_flexion_l	/forceset/tau_hip_adduction_l	/forceset/tau_hip_rotation_l	/forceset/tau_knee_flexion_l	/forceset/tau_ankle_angle_l	/forceset/tau_subtalar_angle_l	/forceset/tau_lumbar_extension	lambda_cid13_p0	lambda_cid13_p1	lambda_cid13_p2	lambda_cid13_p3	lambda_cid13_p4	lambda_cid13_p5	lambda_cid14_p0	/jointset/ground_pelvis/pelvis_tilt/accel	/jointset/ground_pelvis/pelvis_tx/accel	/jointset/ground_pelvis/pelvis_ty/accel	/jointset/hip_l/hip_flexion_l/accel	/jointset/hip_l/hip_adduction_l/accel	/jointset/hip_l/hip_rotation_l/accel	/jointset/back/lumbar_extension/accel	/jointset/patellofemoral_l/patellar_flexion_l/accel	/jointset/knee_l/knee_flexion_l/accel	/jointset/knee_l/knee_adduction_l/accel	/jointset/knee_l/knee_rotation_l/accel	/jointset/ankle_l/ankle_angle_l/accel	/jointset/subtalar_l/subtalar_angle_l/accel	gamma_cid13_p0	gamma_cid13_p1	gamma_cid13_p2	gamma_cid13_p3	gamma_cid13_p4	gamma_cid13_p5	gamma_cid14_p0
0.5	-0.3337794390943318	-0.03172255820618639	0.7639994466219168	1.175000305624763	-0.3044899436210932	0.01387735915115781	-0.3234847287733885	0.8242835750371913	0.8242835750372072	-0.1729751475270421	0.1662178310361115	0.1652963246261713	-0.01863921402550156	-0.4338415855040427	-0.1669708084249205	-0.5208514430623374	2.154040736309739	0.01410759901399272	0.7119891953632083	-0.6311342920928821	2.14191006344444	2.141910063445118	-0.008772870876222838	0.04477388608726376	0.5462254415218399	0.1055586831557678	-0.1864688036509357	0.01932825095031046	-0.02656501297704533	-0.2626787758631821	0.1081109522190236	0.03609366999336902	0.1862226054263622	-3.407037477038033	-17.62286179773659	5.312925392930495	-3.913973741400601	-604.6163044314216	-58.17289994415823	-20.01859153856676	0.5037282084241215	0.6053598341737219	-0.4356994223180918	-1.371428379953707	0.7017143728262296	-0.3569638688571546	1.703634001767118	-1.383719462692667	-1.383719462692672	0.04785935743463508	-0.08834213397709358	-0.5371575856663245	0.7344452090412156	-4.323705111680616e-07	-4.218604389105965e-07	2.735028741632914e-06	3.041040216106272e-07	-5.23619980531254e-07	-2.3660020209174e-07	-4.242551121418348e-07
0.51	-0.3380917520077084	-0.03336181080333787	0.7587702861570232	1.196468525477443	-0.304315272812053	0.02098054261705965	-0.329710517581315	0.8456299523017951	0.8456299523017855	-0.173064031155433	0.1666608184321563	0.1707303587974742	-0.01754864318573458	-0.4285681333761586	-0.160866866916112	-0.5248664886572899	2.139315116800754	0.02080144782111536	0.7085437210557036	-0.61394776535666	2.127072717296043	2.127072717295864	-0.008981939042843867	0.04382879657920054	0.5404933386662304	0.1125333891569955	-0.1928282042597207	0.01969368442726997	-0.02661480348347372	-0.2656297570356016	0.1065716180229784	0.03613185251844064	0.1915604160867125	-4.148127788287875	-17.40364695056949	5.156854675952439	-3.632931722397069	-609.1900154655393	-57.84336430634295	-18.70514275124382	0.5470493990997922	0.6148972353569508	-0.367383199920186	-1.566392956657392	0.6490947694474418	-0.3542714073551656	1.737517629864971	-1.577560871262636	-1.577560871391147	-0.05197469107654944	-0.09733851573609505	-0.6044249646390656	0.6754186097562427	-3.986075402014683e-07	-3.041256855304269e-07	2.617527966300418e-06	3.000772504848584e-07	-4.849423958088818e-07	-1.341770909441261e-07	-3.974563295709537e-07
0.52	-0.3423497512629801	-0.03493962680017676	0.7535043800218127	1.217780836290975	-0.304074488587983	0.02804608490075431	-0.3357621699978164	0.866819192368845	0.8668191923688013	-0.1731543424229628	0.1670944057018171	0.1761044342743948	-0.0163890382231368	-0.4229788538831066	-0.1546834883623983	-0.5282005771257073	2.122858928480306	0.02733028201992479	0.7044609589218762	-0.5963070138078312	2.11048262393367	2.110482623932635	-0.009058398704107327	0.04289386081053095	0.5342337026453896	0.1193655077219308	-0.1991876048685097	0.02005911790422813	-0.02666459398990523	-0.2685807382080221	0.1050322838269327	0.03617003504351071	0.1968982267470596	-4.89449096842442	-17.18496774429971	5.002537756959585	-3.368244138245016	-613.8687817024191	-57.59846162232032	-17.39182426411537	0.5668936814576577	0.6212472431548043	-0.2995079970110558	-1.717542142246537	0.6687114511635884	-0.4844214341217192	1.794478964288431	-1.734268905487824	-1.734268905487836	0.07438105850615104	-0.08631138609836189	-0.6426642187124979	0.7059277217827343	-3.691221159678351e-07	-1.3262222989806e-07	2.534157748479929e-06	3.071769361180674e-07	-4.5188614347445e-07	-1.78452767830034e-08	-3.706309687046497e-07
0.53	-0.3465505020759981	-0.03645523361244211	0.7482085653895431	1.238920256303033	-0.3037691365571071	0.03506807943058268	-0.3416352595752206	0.8878339662433491	0.8878339662432371	-0.173244763660449	0.1675183191959589	0.1814134962539292	-0.015161689422966	-0.4171314766836428	-0.1484258586558833	-0.5308443116758992	2.104748748067314	0.03370379971193486	0.6998614455806214	-0.578255696522136	2.092189908461672	2.092189908461894	-0.009030984673420166	0.04188316651506871	0.5275048387280238	0.126070239133168	-0.2050499335292353	0.0201231959981306	-0.02669591845194806	-0.2721304020366466	0.1044462825732441	0.03594245116954086	0.2018558282452705	-5.338516752233529	-16.89413458744702	4.8256715869568	-3.327101920990306	-618.5053898397684	-57.28584319879287	-16.08270986170093	0.5996081847145871	0.6298853309078308	-0.2291874408092895	-1.899242763438079	0.6158592241659356	-0.4594957254786188	1.818738883291722	-1.919037935713008	-1.919037935524533	-0.03378572761203021	-0.1097931029411471	-0.6990453902613435	0.6473579169931525	-3.374813144316425e-07	-2.039655033678159e-08	2.415808245199079e-06	3.038349872379241e-07	-4.181709231557814e-07	7.204350023889669e-08	-3.43954289796304e-07
0.54	-0.3506915894279162	-0.03790789122834069	0.742889837160414	1.259870277156438	-0.3034012118901219	0.0420417229387276	-0.3473261798252516	0.9086573599496015	0.908657359949434	-0.1733350522182204	0.1679318568168116	0.1866530600118873	-0.01386837089544306	-0.4110461616632266	-0.1420936490890469	-0.5327832964975417	2.08497909674982	0.03984480924179429	0.6947907545853155	-0.559873148333176	2.07220659028338	2.072206590284858	-0.009031862761213779	0.04081868615276669	0.5203340583301491	0.132559453192363	-0.2109122621899652	0.02018727409203066	-0.02672724291398789	-0.2756800658652727	0.1038602813195547	0.03571486729556815	0.2068134297434781	-5.787872933756071	-16.60279484846282	4.649214011278669	-3.30477601293658	-623.2468339712349	-57.04751804805506	-14.78294928967441	0.6144812456481088	0.6361632152191234	-0.1585580513011844	-2.049436323146812	0.6222098187334625	-0.5786569649319379	1.860725144941364	-2.072389446747094	-2.072389446746995	0.06872263480999898	-0.09706859946631095	-0.7310475148142418	0.6628242513743227	-3.034558401351714e-07	2.624520676286627e-08	2.258758255876978e-06	2.889405916621569e-07	-3.837266318758292e-07	1.326761510642097e-07	-3.174421100754866e-07
0.55	-0.3547706885478603	-0.03929698171686393	0.7375552401920388	1.280614628616003	-0.3029728991985106	0.0489621402015153	-0.3528317730954463	0.9292727681173747	0.9292727681172291	-0.1734250411331223	0.1683345539466201	0.1918187956576577	-0.01251109346098173	-0.4047345855778954	-0.1357242033487709	-0.5340181888638438	2.063634850886376	0.0457781857300512	0.689216671657599	-0.5412090340205947	2.050612043918682	2.050612043920138	-0.008965788444584091	0.0397167704842156	0.5127411826326478	0.1388558970859536	-0.2167756499787091	0.02019155965706142	-0.02664527722307254	-0.2788464215985895	0.1026096978601568	0.03547039166685264	0.2116789260069754	-6.445001989370882	-16.26285038648994	4.459421150803801	-3.018746700814012	-627.815585654458	-56.75123986543285	-13.4957890466795	0.6453381939277785	0.6374282068031047	-0.08834156999957053	-2.215399324497668	0.5726454520872306	-0.5584416453786024	1.874725327142114	-2.242376538043162	-2.24237653804654	-0.02437420897708492	-0.1177831033462615	-0.7841589519015587	0.606769885987265	-2.690536661653889e-07	9.988223725649143e-08	2.111668884244482e-06	2.7686393836904e-07	-3.484294307097261e-07	1.998254687834257e-07	-2.897284930819024e-07
0.5600000000000001	-0.3587855034261602	-0.04062235915731015	0.7322118169518596	1.301137841495623	-0.3024865039643737	0.0558244850972883	-0.3581496310719701	0.9496643529601584	0.9496643529600347	-0.1735143541126707	0.1687260259091841	0.1969064522755165	-0.01109210850205732	-0.3981893133344799	-0.129351039473645	-0.5345485508583486	2.040751380760753	0.05146131774692534	0.6831762811823981	-0.5223260895989905	2.027441925285504	2.027441925286938	-0.008896675690615582	0.03857365270379421	0.5047182527478078	0.1449009580849776	-0.2226390377674572	0.02019584522209118	-0.02656331153215311	-0.2820127773319073	0.1013591144007589	0.03522591603813605	0.216544422270469	-7.107246642765568	-15.92192505405773	4.26937635260911	-2.749564894970287	-632.4818552725628	-56.52092706615342	-12.22401422118889	0.661220477264958	0.6369068421891354	-0.01765197694176026	-2.357281175582533	0.5721609244569115	-0.67191847442882	1.904491166745943	-2.387503900442952	-2.38750390044294	0.06933032227776696	-0.1053090218403625	-0.8170583522819257	0.6125476724610074	-2.341994525876327e-07	2.059135958228883e-07	1.976532253839513e-06	2.681685758151035e-07	-3.121087376802419e-07	2.747947867753248e-07	-2.605731513609982e-07
0.5700000000000001	-0.3627338902504847	-0.04188402093022307	0.7268666160517165	1.321424831212666	-0.3019443344168685	0.06262397838096104	-0.3632776785311159	0.9698166071166878	0.9698166071166644	-0.1736024742454881	0.1691057982569217	0.201911946810156	-0.009613693502016765	-0.3914605309770144	-0.1229834091682054	-0.534372372093648	2.016403682254305	0.05693007770882436	0.6766365898891584	-0.5032660232795773	2.002759848328093	2.002759848329048	-0.008716860666380482	0.03738376608597035	0.4963223532768981	0.150738279327893	-0.2280506428541713	0.02001127281009502	-0.02644369219126882	-0.2855330658793782	0.1007110684030447	0.03479589430366438	0.221037760775036	-7.572130304038716	-15.52577607826668	4.060020035273353	-2.612188621514199	-636.9976121794527	-56.24092497435441	-10.96995587393606	0.6828236567343761	0.6364296658954984	0.05308305194150636	-2.509966008269223	0.5275565825499471	-0.6580568602962177	1.909371207080894	-2.545869430997035	-2.545869431068897	-0.006046776450935381	-0.1257687644978727	-0.8595627566237202	0.562493473447823	-2.090171023084197e-07	2.23644587606296e-07	1.848223325229058e-06	2.545120408997798e-07	-2.881894239920275e-07	3.074358398879439e-07	-2.405920127195603e-07
